<svg xmlns="http://www.w3.org/2000/svg" version="1.1" xmlns:xlink="http://www.w3.org/1999/xlink" width="1500" height="1500" viewBox="0 0 1500 1500"><rect width="1500" height="1500" x="0" y="0" id="background" stroke="transparent" fill="#ffffff"></rect><svg xml:space="preserve" width="1000" height="1000" data-version="2" data-id="lg_1Ww76V6TDRMipzRMYj" viewBox="0 0 564 199" x="250" y="250"><rect width="100%" height="100%" fill="transparent"></rect><path fill="#949494" d="M5.275 127.111q1.15-.11 2.23-.41t1.99-.66q.92-.35 1.6-.72.69-.37 1.07-.67.99 3.03 2.17 6.1 1.19 3.06 2.63 6.09 1.44 3.04 3.14 6.01 1.71 2.96 3.74 5.81 2.16-1.18 5.36-7.71 2.65-5.5 4.02-8.89 1.36-3.39 1.36-5.06 4.02-.82 5.58-2.35-3.17 4.81-9.19 16.65-4.65 9.16-5.57 11.9.13 3.2.32 5.49.19 2.3.52 3.78l.22.98q-1.15.14-2.2.42-1.05.29-1.94.65-.89.35-1.6.73-.71.39-1.15.72.38-2.66.64-5.51.26-2.86.4-5.95-1.83-4.16-3.71-7.82-1.87-3.67-3.81-6.97-5.61-10.48-7.82-12.61"></path><rect width="34.89" height="41.32" x="-17.45" y="-20.66" fill="none" rx="0" ry="0" transform="translate(23.22 145.81)"></rect><path fill="#949494" d="m47.415 144.531-3.89-1.53q.71-1.64 2.41-3.01l1.29-1.04 6.23-3.88q1.56.41 3.86 1.58 2.18 1.12 4.1 2.98 2.4 2.35 3.39 5.06 1.06 2.63 1.15 5.74.19 7.77 1.01 12.04l.22.98q-1.86.22-3.34.77-2.38.87-3.55 1.75 1.03-7.39 1.03-14.69v-.74q0-3.11-.98-4.75-1.72-2.55-4.76-3.97-2.73-1.28-8.09-2.46-.44.68-.44 2.38 0 1.07.36 2.79m12.85 17.66-5.74 3.78q-1.56-.55-4.95-2.3-2.55-1.31-4.92-3.94-1.75-2.73-1.75-5.06v-.13q.41-3.31 3.06-5.36 4.48-3.45 11.24-3.5-8.34 3.06-9.66 6.83-.27.8-.27 1.53 0 1.26.88 2.25 2.35 2.37 3.96 3.17 4.95 2.43 8.15 2.73"></path><rect width="24.28" height="30.9" x="-12.14" y="-15.45" fill="none" rx="0" ry="0" transform="translate(55.55 151.02)"></rect><path fill="#949494" d="m91.405 162.191-6.23 3.88q-1.64-.41-3.88-1.58-2.22-1.18-4.11-2.98-2.4-2.33-3.36-5.06-1.17-2.84-1.17-5.85.3-3.78 1.33-6.04 1.04-2.38 2.71-4.24.71-.8 1.64-1.48l5.8-3.8q1.34.36 3.91 1.67 1.91.98 4.07 2.95.66.6 1.78 2.16l-4.4 2.98q-1.34-2.13-3.06-3.33-1.97-1.37-7.93-2.41l-.03.03q-.79 1.47-1.7 4.95-.65 2.48-.65 4.64 0 .88.13 1.78.36 2.38 2.03 4.9 1.72 2.59 4.73 3.96 2.81 1.29 8.06 2.49l.03-.03q.44-.68.44-2.38 0-1.06-.36-2.79l3.89 1.54q-.74 1.66-2.41 3-1.26 1.01-1.26 1.04"></path><rect width="22.42" height="31.03" x="-11.21" y="-15.52" fill="none" rx="0" ry="0" transform="translate(84.36 151.06)"></rect><path fill="#949494" d="M101.905 165.971q.6-4.13.89-8.7.29-4.57.29-9.68-.03-7.22-.29-12.11-.26-4.9-.72-7.47l-.17-.93q1.64-.19 3.31-.78 1.67-.58 3.39-1.54l.19-.11q-.46 3.06-.76 6.56-.3 3.5-.41 7.58l5.99-3.72q.76.19 1.76.6t2.09 1.02q1.1.62 2.23 1.44t2.13 1.82q1 1 1.82 2.19.82 1.18 1.31 2.55 1.07 2.63 1.15 5.74.14 4 .38 6.99.25 2.99.63 5.05l.22.98q-1.15.14-2.2.42-1.05.29-1.94.65-.89.35-1.6.73-.71.39-1.15.72 1.07-7.17 1.07-13.87-.06-1.17-.1-2.1-.04-.93-.13-1.68-.1-.76-.28-1.37-.18-.62-.5-1.16-.8-1.18-1.82-2.11-1.03-.93-2.53-1.68-1.5-.75-3.57-1.4-2.06-.64-4.93-1.24h-.03q-.03 1.01-.04 2.04-.02 1.02-.02 2.06v.96q.03 6.59.25 11.07.22 4.49.76 6.98l.22.98q-1.17.14-2.23.42-1.05.29-1.94.65-.89.35-1.58.73-.7.39-1.14.72"></path><rect width="25.43" height="41.32" x="-12.71" y="-20.66" fill="none" rx="0" ry="0" transform="translate(115.12 145.81)"></rect><path fill="#949494" d="M134.855 165.971q.6-4.13.89-8.7.29-4.57.29-9.68v-1.61q0-.74-.03-1.34l-.16-6.24q-1.97.06-3.74.22-1.76.17-3.4.47.38-.61.7-1.63.31-1.03.48-2.39l.43.13q.8.25 2.14.35 1.34.09 3.25.17-.14-2.54-.3-4.45-.17-1.92-.38-3.26l-.17-.93q1.67-.19 3.32-.78 1.66-.58 3.57-1.65-.76 4.87-1.06 11.13 2.07-.06 3.87-.23 1.79-.18 3.35-.48-.91 1.86-1.13 4.02l-.43-.11q-.93-.22-2.38-.32-1.45-.09-3.39-.2-.03 1.23-.04 2.46-.02 1.23-.02 2.54v.96q.03 6.59.25 11.07.22 4.49.76 6.98l.22.98q-.98.14-2.02.42-1.04.29-1.98.66-.95.37-1.71.75-.77.38-1.18.69"></path><rect width="19.2" height="41.32" x="-9.6" y="-20.66" fill="none" rx="0" ry="0" transform="translate(138.8 145.81)"></rect><path fill="#949494" d="M168.405 165.971q.6-4.19.91-7.91.3-3.72.3-7.02 0-3.83-.32-7.32-.31-3.49-.72-6.63l-.17-.93q1.67-.19 3.33-.78 1.65-.59 3.56-1.65-.63 3.99-.94 7.33-.31 3.33-.31 6.07v.9q0 .41.02.9.03.49.06 1.15.03.65.08 1.61l.52.25q3.39 1.23 6.1 1.23 1.88-.03 3.54-.56 1.65-.54 3.03-1.49 1.38-.96 2.23-2.35.85-1.4 1.18-3.15.16-.98.26-1.84.09-.87.09-1.63 0-1.37-.3-2.67-.3-1.3-.79-2.46-.49-1.16-1.14-2.13-.64-.97-1.32-1.71-.63-.66-1.6-1.26-.97-.6-2.2-1.06-1.23-.47-2.7-.74-1.46-.28-3.13-.28-1.42 0-2.99.35-1.57.34-3.19.97-1.61.63-3.24 1.53-1.62.9-3.15 2.05l1.83-7.17q2.13-.84 3.22-1.28 1.1-.44 1.21-.47 2.46-.65 4.18-.97 1.72-.31 2.84-.31 1.29 0 2.92.31 1.62.32 3.33.96 1.71.64 3.34 1.59 1.63.94 2.94 2.17 1.09 1.04 1.99 2.37.91 1.32 1.56 2.83.66 1.5 1.01 3.14.36 1.64.36 3.31-.03 1.48-.3 2.94t-.88 2.95q-.6 1.49-1.72 2.96-1.12 1.46-2.84 2.77-.39.3-.74.49l-.03.03q1.59 3.12 3.27 5.65 1.68 2.53 3.49 4.52-1.67.19-3.33.78-1.65.59-3.57 1.66-2.57-8.18-4.01-10.94-.28.05-.63.11-.36.05-.85.11-.49.05-1.07.09-.57.04-1.12.04-1.8 0-3.57-.28-1.76-.29-3.51-.78l-.41-.09q.22 3.67.38 5.82.17 2.14.38 2.77l.22.63q-1.28.14-2.33.41-1.06.27-1.9.66-.85.38-1.51.75-.65.37-1.15.7"></path><rect width="30.98" height="41.43" x="-15.49" y="-20.71" fill="none" rx="0" ry="0" transform="translate(181.4 145.76)"></rect><path fill="#949494" d="m220.885 162.191-6.24 3.88q-1.61-.38-3.88-1.59-2.27-1.22-4.1-2.97-2.41-2.33-3.37-5.06-.93-2.27-1.17-5.74v-.11q0-2.93 1.34-6.04 1.01-2.38 2.7-4.24.72-.77 1.65-1.48l5.74-3.77q1.45.49 4.95 2.29 2.54 1.32 4.92 3.94 1.75 2.74 1.75 5.06v.14q-.41 3.33-3.06 5.36-4.52 3.44-11.24 3.5 8.47-2.9 10.03-6.7.33-.8.33-1.56v-.11q0-1.15-.96-2.24-1.5-1.78-4.32-3.18-4.81-2.37-7.82-2.67-1.04 1.69-1.88 5.14-.66 2.68-.66 4.64 0 .93.14 1.78.38 2.44 2.02 4.9 1.7 2.51 4.73 3.96 2.63 1.26 8.07 2.49l.02-.03q.44-.68.44-2.38 0-1.06-.35-2.79l3.88 1.54q-.74 1.66-2.41 3-1.25 1.01-1.25 1.04"></path><rect width="23.05" height="31" x="-11.53" y="-15.5" fill="none" rx="0" ry="0" transform="translate(214.15 151.07)"></rect><path fill="#949494" d="M232.005 165.971q1.04-8.21 1.04-13.62 0-2.71-.02-2.95-.06-6.38-.88-11.46l-.14-.44q3.31-.38 6.7-2.32l.2-.11q-.55 1.61-1.18 3.72l5.99-3.72q1.56.41 3.85 1.58 2.14 1.12 4.1 2.98 2.41 2.3 3.4 5.06 1.06 2.63 1.14 5.74.25 7.96 1.02 12.04l.21.98q-1.83.22-3.33.77-2.38.87-3.56 1.75 1.07-7.17 1.07-13.87-.03-.87-.03-1.56 0-3.14-.98-4.75-1.64-2.41-4.76-3.97-2.73-1.37-8.09-2.46h-.03q-.19 2-.19 8.86v.96q0 7.68 1.15 13.29l.22.98q-1.86.22-3.34.77-2.38.87-3.56 1.75"></path><rect width="25.43" height="30.9" x="-12.71" y="-15.45" fill="none" rx="0" ry="0" transform="translate(245.22 151.02)"></rect><path fill="#949494" d="M264.955 165.971q.61-4.13.89-8.7.29-4.57.29-9.68v-1.61q0-.74-.03-1.34l-.16-6.24q-1.97.06-3.73.22-1.77.17-3.41.47.38-.61.7-1.63.31-1.03.48-2.39l.43.13q.8.25 2.14.35 1.34.09 3.25.17-.14-2.54-.3-4.45-.16-1.92-.38-3.26l-.17-.93q1.67-.19 3.33-.78 1.65-.58 3.56-1.65-.76 4.87-1.06 11.13 2.08-.06 3.87-.23 1.79-.18 3.35-.48-.91 1.86-1.12 4.02l-.44-.11q-.93-.22-2.38-.32-1.45-.09-3.39-.2-.03 1.23-.04 2.46-.02 1.23-.02 2.54v.96q.03 6.59.25 11.07.22 4.49.77 6.98l.21.98q-.98.14-2.02.42-1.04.29-1.98.66-.94.37-1.71.75t-1.18.69"></path><rect width="19.2" height="41.32" x="-9.6" y="-20.66" fill="none" rx="0" ry="0" transform="translate(268.9 145.81)"></rect><path fill="#949494" d="m283.885 144.531-3.89-1.53q.71-1.64 2.41-3.01l1.28-1.04 6.24-3.88q1.56.41 3.85 1.58 2.19 1.12 4.11 2.98 2.4 2.35 3.39 5.06 1.06 2.63 1.14 5.74.2 7.77 1.02 12.04l.22.98q-1.86.22-3.34.77-2.38.87-3.56 1.75 1.04-7.39 1.04-14.69v-.74q0-3.11-.98-4.75-1.72-2.55-4.76-3.97-2.73-1.28-8.09-2.46-.44.68-.44 2.38 0 1.07.36 2.79m12.85 17.66-5.75 3.78q-1.55-.55-4.94-2.3-2.55-1.31-4.93-3.94-1.75-2.73-1.75-5.06v-.13q.41-3.31 3.07-5.36 4.48-3.45 11.23-3.5-8.34 3.06-9.65 6.83-.27.8-.27 1.53 0 1.26.87 2.25 2.36 2.37 3.97 3.17 4.95 2.43 8.15 2.73"></path><rect width="24.29" height="30.9" x="-12.14" y="-15.45" fill="none" rx="0" ry="0" transform="translate(292.01 151.02)"></rect><path fill="#949494" d="M310.485 165.971q1.18-8.21 1.18-18.38 0-1.5-.03-2.95-.22-11.98-.98-16.63l-.17-.93q3.34-.38 6.7-2.32l.19-.11q-1.23 7.76-1.23 18.81v.96q0 13.12 1.01 18.05l.22.98q-1.86.22-3.33.77-2.38.87-3.56 1.75"></path><rect width="6.89" height="41.32" x="-3.44" y="-20.66" fill="none" rx="0" ry="0" transform="translate(314.43 145.81)"></rect><path fill="#949494" d="m339.365 165.861-.11.11q1.36-4.57 3.69-20.24 1.15-7.74 1.86-14.44-1.4-2.62-2.6-4.18 1.64-.19 3.34-.77 2.48-.84 3.55-1.69v.05l.06-.05-.03.05q.82 3.34 5.96 19.66 3.72 11.76 5.17 13.48 1.5-2.16 5.85-13.94 4.1-11.13 5.08-14.9-.13-.39-.52-1.1l-.46-.87q3.31-.38 6.7-2.33l.19-.11v.06q0 8.78 1.56 19.44 1.89 12.85 3.99 18.38.36.93.49.98-1.86.22-3.33.77-2.38.87-3.56 1.75.06-.52.06-1.29-.06-5.17-1.92-20.15-.76-6.21-1.69-10.42l-4.08 9.95q-4.29 10.89-5.33 18.38-.11.79-.13.82l.02.27q-3.31.38-6.7 2.33l-.19.11q-.87-8.26-5.55-20.79-2.21-5.93-4.1-10.09-.77 4.57-1.61 10.75-1.32 9.41-1.64 17.06l-.03.63q-2.08.41-3.99 2.33"></path><rect width="43.88" height="41.38" x="-21.94" y="-20.69" fill="none" rx="0" ry="0" transform="translate(361.7 145.78)"></rect><path fill="#949494" d="m393.095 139.061-.03.03q-.79 1.47-1.7 4.95-.65 2.48-.65 4.64 0 .85.13 1.78.36 2.41 2.03 4.9 1.72 2.59 4.73 3.96 2.81 1.29 8.06 2.49l.03-.03q.66-1.47 1.56-5.41.55-2.38.55-4.32 0-1.04-.14-1.83-.41-2.41-2.02-4.9-1.32-2.02-4.73-3.94-2.68-1.5-7.82-2.32m12.9 23.13-6.23 3.88q-1.64-.41-3.88-1.58-2.22-1.18-4.11-2.98-2.4-2.33-3.36-5.06-1.18-2.79-1.18-5.74v-.11q0-2.93 1.34-6.04 1.07-2.49 2.71-4.24.77-.82 1.64-1.48l5.8-3.8q1.34.36 3.91 1.67 1.91.98 4.07 2.95 2.44 2.35 3.42 5.22 1.1 3.07 1.12 5.69v.11q0 3.77-1.2 5.99-1.86 3.42-3.12 4.54-.68.6-.93.98"></path><rect width="24.01" height="31.03" x="-12.01" y="-15.52" fill="none" rx="0" ry="0" transform="translate(399.74 151.06)"></rect><path fill="#949494" d="M418.055 165.971q1.04-8.21 1.04-13.62 0-2.71-.03-2.95-.05-6.38-.87-11.46l-.14-.44q3.31-.38 6.7-2.32l.19-.11q-.54 1.61-1.17 3.72l5.98-3.72q1.56.41 3.86 1.58 2.13 1.12 4.1 2.98 2.41 2.3 3.39 5.06 1.07 2.63 1.15 5.74.25 7.96 1.01 12.04l.22.98q-1.83.22-3.33.77-2.38.87-3.56 1.75 1.07-7.17 1.07-13.87-.03-.87-.03-1.56 0-3.14-.98-4.75-1.65-2.41-4.76-3.97-2.74-1.37-8.1-2.46h-.02q-.2 2-.2 8.86v.96q0 7.68 1.15 13.29l.22.98q-1.86.22-3.33.77-2.38.87-3.56 1.75"></path><rect width="25.43" height="30.9" x="-12.71" y="-15.45" fill="none" rx="0" ry="0" transform="translate(431.27 151.02)"></rect><path fill="#949494" d="M451.005 165.971q.6-4.13.89-8.7.29-4.57.29-9.68v-1.61q0-.74-.03-1.34l-.17-6.24q-1.96.06-3.73.22-1.76.17-3.4.47.38-.61.7-1.63.31-1.03.47-2.39l.44.13q.79.25 2.13.35 1.34.09 3.26.17-.14-2.54-.3-4.45-.17-1.92-.39-3.26l-.16-.93q1.67-.19 3.32-.78 1.66-.58 3.57-1.65-.76 4.87-1.07 11.13 2.08-.06 3.87-.23 1.79-.18 3.35-.48-.9 1.86-1.12 4.02l-.44-.11q-.92-.22-2.37-.32-1.45-.09-3.39-.2-.03 1.23-.05 2.46-.01 1.23-.01 2.54v.96q.03 6.59.25 11.07.22 4.49.76 6.98l.22.98q-.98.14-2.02.42-1.04.29-1.98.66-.95.37-1.71.75-.77.38-1.18.69"></path><rect width="19.19" height="41.32" x="-9.6" y="-20.66" fill="none" rx="0" ry="0" transform="translate(454.95 145.81)"></rect><path fill="#949494" d="M466.785 165.971q.52-4.13.78-7.51t.26-6.11q0-2.22-.04-4.14-.05-1.93-.15-3.67-.11-1.73-.29-3.35-.18-1.61-.43-3.25l-.13-.44q1.67-.19 3.32-.78 1.65-.59 3.38-1.54l.19-.11q-.27.79-.58 1.73-.3.95-.6 1.99l5.99-3.72q1.09.3 2.72 1.05 1.63.75 3.3 1.97 1.66 1.22 3.13 2.87 1.46 1.65 2.2 3.73l-4.95 2.03q-1.12-2.06-2.57-3.46-1.45-1.41-2.98-2.3-1.53-.89-3.01-1.29-1.48-.39-2.65-.39-.58 0-1.15.08h-.03q-.11 1.01-.15 3.21-.04 2.2-.04 5.65v.96q0 7.68 1.15 13.29l.22.98q-1.07.14-2.11.41-1.04.27-1.95.64-.92.37-1.66.75-.73.39-1.17.72"></path><rect width="23.05" height="30.9" x="-11.53" y="-15.45" fill="none" rx="0" ry="0" transform="translate(478.81 151.02)"></rect><path fill="#949494" d="m509.955 162.191-6.23 3.88q-1.61-.38-3.88-1.59-2.27-1.22-4.11-2.97-2.4-2.33-3.36-5.06-.93-2.27-1.17-5.74v-.11q0-2.93 1.34-6.04 1.01-2.38 2.7-4.24.71-.77 1.64-1.48l5.75-3.77q1.44.49 4.94 2.29 2.55 1.32 4.93 3.94 1.75 2.74 1.75 5.06v.14q-.41 3.33-3.07 5.36-4.51 3.44-11.23 3.5 8.47-2.9 10.03-6.7.33-.8.33-1.56v-.11q0-1.15-.96-2.24-1.5-1.78-4.32-3.18-4.81-2.37-7.82-2.67-1.04 1.69-1.89 5.14-.65 2.68-.65 4.64 0 .93.14 1.78.38 2.44 2.02 4.9 1.69 2.51 4.73 3.96 2.62 1.26 8.07 2.49l.02-.03q.44-.68.44-2.38 0-1.06-.36-2.79l3.89 1.54q-.74 1.66-2.41 3-1.26 1.01-1.26 1.04"></path><rect width="23.05" height="31" x="-11.53" y="-15.5" fill="none" rx="0" ry="0" transform="translate(503.23 151.07)"></rect><path fill="#949494" d="m524.235 144.531-3.89-1.53q.72-1.64 2.41-3.01l1.29-1.04 6.23-3.88q1.56.41 3.86 1.58 2.18 1.12 4.1 2.98 2.4 2.35 3.39 5.06 1.06 2.63 1.15 5.74.19 7.77 1.01 12.04l.22.98q-1.86.22-3.34.77-2.38.87-3.55 1.75 1.04-7.39 1.04-14.69v-.74q0-3.11-.99-4.75-1.72-2.55-4.76-3.97-2.73-1.28-8.09-2.46-.44.68-.44 2.38 0 1.07.36 2.79m12.85 17.66-5.74 3.78q-1.56-.55-4.95-2.3-2.55-1.31-4.92-3.94-1.75-2.73-1.75-5.06v-.13q.41-3.31 3.06-5.36 4.48-3.45 11.24-3.5-8.34 3.06-9.66 6.83-.27.8-.27 1.53 0 1.26.88 2.25 2.35 2.37 3.96 3.17 4.95 2.43 8.15 2.73"></path><rect width="24.28" height="30.9" x="-12.14" y="-15.45" fill="none" rx="0" ry="0" transform="translate(532.37 151.02)"></rect><path fill="#949494" d="M550.835 165.971q1.18-8.21 1.18-18.38 0-1.5-.03-2.95-.22-11.98-.98-16.63l-.17-.93q3.34-.38 6.7-2.32l.19-.11q-1.23 7.76-1.23 18.81v.96q0 13.12 1.01 18.05l.22.98q-1.86.22-3.33.77-2.38.87-3.56 1.75"></path><rect width="6.89" height="41.32" x="-3.44" y="-20.66" fill="none" rx="0" ry="0" transform="translate(554.78 145.81)"></rect><path fill="#3f3f3f" d="M141.895 195.611q-1.42 0-3.07.35.18-1.25.27-2.63.08-1.39.08-2.95 0-2.19-.08-3.68-.08-1.48-.22-2.26l-.05-.28q.5-.06 1.01-.24.5-.18 1.08-.5-.37 2.34-.37 5.71v.29q0 3.8.28 5.34.22.06.39.06 2.85 0 4.73-.95-.16.29-.32.81-.17.53-.24 1.28l-.21-.07q-.91-.28-3.28-.28"></path><rect width="7.12" height="12.54" x="-3.56" y="-6.27" fill="none" rx="0" ry="0" transform="translate(142.88 190.2)"></rect><path fill="#3f3f3f" d="M148.505 195.961q.36-2.49.36-5.58 0-.46-.01-.9-.06-3.63-.3-5.04l-.05-.28q1.02-.12 2.04-.71l.06-.03q-.38 2.35-.38 5.71v.29q0 3.98.31 5.48l.07.3q-.57.06-1.02.23-.72.26-1.08.53"></path><rect width="2.1" height="12.54" x="-1.05" y="-6.27" fill="none" rx="0" ry="0" transform="translate(150.06 190.2)"></rect><path fill="#3f3f3f" d="m159.975 194.891-.03.33q-.5.06-1.01.24-.5.18-1.08.5-.14-1.29-.56-2.85-.42-1.56-1.13-3.46-.77-2.07-1.41-3.43-.64-1.36-1.18-2.06.32-.03.64-.12.32-.08.6-.19.28-.11.51-.22.22-.11.35-.21.12.5.57 1.99.46 1.49 1.24 3.99 1.14 3.59 1.57 4.09.45-.64 1.78-4.23.8-2.22 1.22-3.47.42-1.26.42-1.55v-.11q1.19-.23 1.7-.71-.53 1-1.17 2.47-.63 1.46-1.41 3.42-1.31 3.3-1.62 5.58"></path><rect width="10.6" height="12.54" x="-5.3" y="-6.27" fill="none" rx="0" ry="0" transform="translate(159.38 190.2)"></rect><path fill="#3f3f3f" d="M170.225 195.611q-1.42 0-3.07.35.18-1.22.27-2.6.08-1.39.08-2.96 0-2.24-.08-3.74-.09-1.49-.22-2.22l-.05-.28q.5-.06 1-.24.51-.18 1.09-.5.52.17 1.02.3.5.12 1.14.12 1.08 0 2.38-.42-.61 1.09-.67 2.09-1.54-.08-2.58-.84-.5-.38-.82-.65-.33-.27-.5-.44-.35 2.29-.35 5.49v.15q2.3-.12 3.92-.94-.16.32-.33.86-.16.54-.22 1.23l-.23-.06q-.94-.29-2.8-.29h-.33q.04 3.41.28 4.74.25.06.39.06 2.85 0 4.73-.95-.15.29-.31.78-.17.5-.25 1.31l-.21-.07q-.91-.28-3.28-.28"></path><rect width="7.12" height="12.54" x="-3.56" y="-6.27" fill="none" rx="0" ry="0" transform="translate(171.22 190.2)"></rect><path fill="#3f3f3f" d="M186.215 195.961q.18-1.24.27-2.62.09-1.38.09-2.95 0-2.12-.09-3.57-.08-1.45-.19-2.24-1.02.07-1.91.3-.88.23-1.66.63.16-.32.32-.84.17-.53.23-1.25l.22.06q.98.31 4.4.31 2.27 0 3.98-.37-.24.56-.37 1.06-.13.51-.17 1.03l-.17-.12q-1.01-.67-2.94-.8-.14 1.07-.22 2.23-.07 1.17-.07 2.6.01 2 .07 3.36.07 1.36.24 2.12l.06.3q-.38.04-.7.12-.33.08-.59.2-.26.12-.46.23-.2.11-.34.21"></path><rect width="9.15" height="12.54" x="-4.58" y="-6.27" fill="none" rx="0" ry="0" transform="translate(187.8 190.2)"></rect><path fill="#3f3f3f" d="M194.445 195.961q.35-2.47.35-5.58 0-.45-.01-.9-.06-3.65-.29-5.04l-.05-.28q1-.12 2.03-.71l.06-.03q-.37 2.3-.38 5.57 1.07.12 2.24.12h.15q1.77 0 2.54-.17-.07-3.12-.29-4.5l-.05-.28q1-.12 2.03-.71l.06-.03q-.38 2.35-.38 5.71v.29q0 3.99.31 5.48l.07.3q-.57.06-1.01.23-.73.26-1.08.53.35-2.52.35-5.67v-.28q-.8-.11-1.93-.11-.31 0-.59.01-2 .06-2.41.13.04 3.56.3 4.86l.07.3q-.57.06-1.01.23-.73.26-1.08.53"></path><rect width="8.39" height="12.54" x="-4.2" y="-6.27" fill="none" rx="0" ry="0" transform="translate(199.14 190.2)"></rect><path fill="#3f3f3f" d="M210.125 195.611q-1.42 0-3.07.35.19-1.22.27-2.6.09-1.39.09-2.96 0-2.24-.09-3.74-.08-1.49-.22-2.22l-.05-.28q.51-.06 1.01-.24t1.08-.5q.53.17 1.03.3.49.12 1.13.12 1.09 0 2.38-.42-.6 1.09-.66 2.09-1.54-.08-2.58-.84-.5-.38-.83-.65-.32-.27-.49-.44-.35 2.29-.35 5.49v.15q2.29-.12 3.92-.94-.17.32-.33.86t-.23 1.23l-.22-.06q-.95-.29-2.8-.29h-.33q.03 3.41.27 4.74.25.06.39.06 2.86 0 4.73-.95-.14.29-.31.78-.16.5-.24 1.31l-.22-.07q-.9-.28-3.28-.28"></path><rect width="7.12" height="12.54" x="-3.56" y="-6.27" fill="none" rx="0" ry="0" transform="translate(211.12 190.2)"></rect><path fill="#3f3f3f" d="M223.045 184.161q.35-.03.67-.12.33-.09.61-.2.28-.11.49-.22.2-.11.32-.2.3.92.66 1.85.36.93.8 1.85.43.92.95 1.82t1.13 1.76q.66-.35 1.63-2.34.81-1.66 1.22-2.69.42-1.03.42-1.54 1.22-.25 1.69-.71-.96 1.46-2.79 5.05-1.41 2.78-1.69 3.61.04.97.1 1.67.06.7.15 1.15l.07.3q-.35.04-.67.12-.32.09-.59.2-.27.11-.48.22-.22.12-.35.22.12-.81.19-1.67.08-.87.12-1.81-.55-1.26-1.12-2.37-.57-1.12-1.16-2.12-1.7-3.18-2.37-3.83"></path><rect width="10.59" height="12.54" x="-5.29" y="-6.27" fill="none" rx="0" ry="0" transform="translate(228.84 190.2)"></rect><path fill="#3f3f3f" d="M245.965 195.201q-.34.04-.66.12-.32.08-.59.19-.27.11-.49.22-.21.12-.36.23-.13-.51-.43-1.51-.3-1.01-.77-2.53-.45-.04-.89-.06-.45-.03-.91-.03-.13 0-.24.01h-.19q-1.44 0-2.34.15l-.09.02q-.46 1.31-.7 2.08-.24.77-.24 1.03v.11q-1.17.23-1.7.73.58-1.15 1.22-2.62.63-1.46 1.36-3.29 1.3-3.32 1.62-5.58l.03-.33q1.01-.11 2.09-.72.26 2.46 1.69 6.29 1.53 4.13 2.59 5.49m-3.56-4.11-.35-1.13q-.57-1.8-.96-2.82-.4-1.02-.61-1.27-.44.64-1.78 4.23l-.36.98q.42.04.89.06.47.03.99.03h.17q1.24 0 2.01-.08"></path><rect width="10.6" height="12.54" x="-5.3" y="-6.27" fill="none" rx="0" ry="0" transform="translate(241.16 190.2)"></rect><path fill="#3f3f3f" d="m255.875 191.381 1.67.57q-.04.14-.07.2-.5 1.09-1.07 1.67-.43.44-.69.68-.26.24-.35.3l-1.85 1.16q-.47-.13-1.11-.45-.63-.31-1.27-.81-.63-.5-1.17-1.16-.54-.67-.83-1.48-.21-.63-.33-1.21-.12-.58-.11-1.16 0-.71.19-1.46.2-.75.54-1.44.34-.68.82-1.26.47-.58 1.03-.96l1.84-1.19q.23.07.56.2.34.14.74.36.41.22.86.55.45.32.92.77.26.26.47.55l-1.65.81q-.37-.47-.76-.81-.39-.33-.83-.57-.44-.24-.94-.39-.51-.16-1.11-.26l-.01.01q-.72.41-1.09 2.19-.25 1.2-.25 2.15 0 .53.11 1.12.11.59.35 1.17.25.59.65 1.15.39.56.98 1.03.58.47 1.36.83.78.36 1.79.54.77-.68.77-2.14 0-.67-.16-1.26"></path><rect width="8.85" height="12.58" x="-4.43" y="-6.29" fill="none" rx="0" ry="0" transform="translate(253.62 190.17)"></rect><path fill="#3f3f3f" d="M261.525 195.961q.35-2.47.35-5.58v-.9q-.07-3.65-.3-5.04l-.05-.28q1-.12 2.03-.71l.06-.03q-.37 2.3-.37 5.57 1.06.12 2.23.12h.15q1.77 0 2.54-.17-.07-3.12-.29-4.5l-.05-.28q1-.12 2.03-.71l.06-.03q-.37 2.35-.37 5.71v.29q0 3.99.3 5.48l.07.3q-.56.06-1.01.23-.72.26-1.08.53.36-2.52.36-5.67v-.28q-.81-.11-1.94-.11-.31 0-.59.01-2 .06-2.41.13.04 3.56.3 4.86l.07.3q-.56.06-1.01.23-.73.26-1.08.53"></path><rect width="8.39" height="12.54" x="-4.2" y="-6.27" fill="none" rx="0" ry="0" transform="translate(266.22 190.2)"></rect><path fill="#3f3f3f" d="M275.975 195.961q.18-1.24.27-2.62.09-1.38.09-2.95 0-2.12-.09-3.57-.08-1.45-.2-2.24-1.01.07-1.9.3-.89.23-1.67.63.17-.32.33-.84.16-.53.23-1.25l.22.06q.98.31 4.4.31 2.27 0 3.98-.37-.24.56-.37 1.06-.13.51-.17 1.03l-.17-.12q-1.02-.67-2.94-.8-.14 1.07-.22 2.23-.07 1.17-.07 2.6.01 2 .07 3.36.07 1.36.23 2.12l.07.3q-.38.04-.71.12-.32.08-.58.2-.26.12-.46.23-.2.11-.34.21"></path><rect width="9.16" height="12.54" x="-4.58" y="-6.27" fill="none" rx="0" ry="0" transform="translate(277.56 190.2)"></rect><path fill="#3f3f3f" d="M293.985 195.611q-1.42 0-3.07.35.18-1.25.27-2.63.09-1.39.09-2.95-.01-2.19-.09-3.68-.08-1.48-.22-2.26l-.05-.28q.5-.06 1.01-.24.5-.18 1.08-.5-.37 2.34-.37 5.71v.29q0 3.8.28 5.34.22.06.39.06 2.85 0 4.73-.95-.16.29-.32.81-.17.53-.24 1.28l-.21-.07q-.91-.28-3.28-.28"></path><rect width="7.12" height="12.54" x="-3.56" y="-6.27" fill="none" rx="0" ry="0" transform="translate(294.98 190.2)"></rect><path fill="#3f3f3f" d="M300.595 195.961q.36-2.49.36-5.58 0-.46-.01-.9-.06-3.63-.3-5.04l-.05-.28q1.02-.12 2.04-.71l.06-.03q-.38 2.35-.38 5.71v.29q0 3.98.31 5.48l.07.3q-.57.06-1.02.23-.72.26-1.08.53"></path><rect width="2.1" height="12.54" x="-1.05" y="-6.27" fill="none" rx="0" ry="0" transform="translate(302.14 190.2)"></rect><path fill="#3f3f3f" d="M309.005 183.421q.54.21 1.04.32.51.1 1.12.1 1.09 0 2.37-.42-.59 1.09-.65 2.09-.81-.04-1.44-.25-.63-.21-1.14-.59-.56-.42-.88-.71-.32-.29-.43-.46-.19 1.16-.27 2.54-.09 1.39-.09 3.03v.15q2.29-.12 3.92-.94-.19.35-.34.9-.15.55-.22 1.19l-.22-.06q-.47-.14-1.22-.22-.74-.07-1.79-.07h-.12q.02 1.81.09 3.02.06 1.21.21 1.86l.06.3q-.35.04-.67.12-.32.09-.59.2-.27.11-.48.22-.22.12-.35.22.18-1.24.27-2.62.09-1.38.09-2.95-.02-2.21-.1-3.7-.08-1.49-.21-2.25l-.05-.28q.51-.06 1.01-.24.5-.17 1.08-.5"></path><rect width="6.62" height="12.54" x="-3.31" y="-6.27" fill="none" rx="0" ry="0" transform="translate(310.73 190.2)"></rect><path fill="#3f3f3f" d="M319.585 195.611q-1.42 0-3.07.35.18-1.22.27-2.6.08-1.39.08-2.96 0-2.24-.08-3.74-.09-1.49-.22-2.22l-.05-.28q.5-.06 1-.24.51-.18 1.09-.5.52.17 1.02.3.5.12 1.14.12 1.08 0 2.38-.42-.61 1.09-.67 2.09-1.54-.08-2.58-.84-.5-.38-.82-.65-.33-.27-.5-.44-.35 2.29-.35 5.49v.15q2.29-.12 3.92-.94-.16.32-.33.86-.16.54-.22 1.23l-.23-.06q-.94-.29-2.8-.29h-.33q.04 3.41.28 4.74.24.06.39.06 2.85 0 4.73-.95-.15.29-.31.78-.17.5-.25 1.31l-.21-.07q-.91-.28-3.28-.28"></path><rect width="7.12" height="12.54" x="-3.56" y="-6.27" fill="none" rx="0" ry="0" transform="translate(320.57 190.2)"></rect><path fill="#3f3f3f" d="M335.835 183.421q.54.21 1.04.32.5.1 1.12.1 1.08 0 2.37-.42-.6 1.09-.66 2.09-.8-.04-1.43-.25-.63-.21-1.15-.59-.55-.42-.87-.71-.32-.29-.44-.46-.18 1.16-.27 2.54-.09 1.39-.09 3.03v.15q2.3-.12 3.92-.94-.19.35-.34.9-.15.55-.21 1.19l-.23-.06q-.46-.14-1.21-.22-.75-.07-1.79-.07h-.13q.03 1.81.09 3.02.07 1.21.21 1.86l.07.3q-.36.04-.68.12-.32.09-.59.2-.27.11-.48.22-.21.12-.34.22.18-1.24.27-2.62.08-1.38.08-2.95-.01-2.21-.09-3.7-.08-1.49-.21-2.25l-.05-.28q.5-.06 1-.24.51-.17 1.09-.5"></path><rect width="6.62" height="12.54" x="-3.31" y="-6.27" fill="none" rx="0" ry="0" transform="translate(337.56 190.2)"></rect><path fill="#3f3f3f" d="M345.765 184.591q-.7.41-1.09 2.2-.25 1.16-.25 2.13 0 .43.05.82.14 1.09.78 2.25.59 1.05 1.82 1.81 1.19.73 2.58.98l.01-.01q.78-.43 1.13-2.32.21-1.09.21-1.99 0-.43-.05-.83-.12-1.05-.78-2.25-.59-1.07-1.78-1.77t-2.63-1.02m4 10.21-1.86 1.16q-.58-.16-1.49-.65-.85-.46-1.58-1.2-.93-.94-1.3-2.05-.45-1.26-.45-2.33v-.04q0-1.18.52-2.45.37-.93 1.04-1.72.53-.62 1.02-.95l1.85-1.19q.52.14 1.5.68.74.39 1.58 1.2.93.95 1.31 2.12.42 1.23.43 2.3v.05q0 1.33-.47 2.42-.44 1.04-1.07 1.67-.86.86-1.03.98"></path><rect width="9.25" height="12.58" x="-4.63" y="-6.29" fill="none" rx="0" ry="0" transform="translate(348.21 190.17)"></rect><path fill="#3f3f3f" d="M356.725 195.961q.18-1.27.27-2.4.09-1.13.09-2.13 0-1.17-.09-2.22-.1-1.06-.22-2.02l-.05-.28q.51-.06 1.01-.24.5-.17 1.08-.5-.19 1.21-.29 2.23-.09 1.01-.09 1.84v.27q0 .13.01.28.01.15.01.35.01.2.03.49l.16.07q1.03.37 1.85.37.57 0 1.07-.17.5-.16.92-.45.42-.29.68-.71.26-.43.36-.96.05-.3.08-.56.03-.26.03-.49 0-.42-.1-.81-.09-.39-.24-.75-.15-.35-.34-.64-.2-.3-.4-.52-.19-.2-.49-.39-.29-.18-.67-.32-.37-.14-.82-.22-.44-.09-.95-.09-.43 0-.9.11-.48.1-.97.29-.49.19-.99.47-.49.27-.95.62l.55-2.18q.65-.25.98-.39.33-.13.37-.14.74-.2 1.27-.29.52-.1.86-.1.39 0 .88.1.5.09 1.02.29.52.19 1.01.48t.89.66q.33.32.61.72.27.4.47.86.2.45.31.95.11.5.11 1.01-.01.45-.1.89-.08.44-.26.9-.18.45-.52.89-.34.45-.87.84-.11.1-.22.15l-.01.01q.48.95.99 1.72.51.76 1.06 1.37-.51.06-1.01.24t-1.08.5q-.78-2.48-1.22-3.32-.08.02-.19.03-.11.02-.26.04l-.32.02q-.18.02-.34.02-.55 0-1.09-.09-.53-.09-1.06-.24l-.13-.02q.07 1.11.12 1.76.05.65.11.84l.07.2q-.39.04-.71.12-.32.08-.58.2-.25.12-.45.23-.2.11-.35.21"></path><rect width="9.4" height="12.58" x="-4.7" y="-6.29" fill="none" rx="0" ry="0" transform="translate(361.01 190.17)"></rect><path fill="#3f3f3f" d="M385.165 195.201q-.34.04-.65.12-.32.08-.59.19-.27.11-.49.22-.22.12-.36.23-.13-.51-.43-1.51-.3-1.01-.77-2.53-.45-.04-.89-.06-.45-.03-.91-.03-.14 0-.24.01h-.19q-1.44 0-2.34.15l-.09.02q-.46 1.31-.7 2.08-.24.77-.24 1.03v.11q-1.17.23-1.7.73.58-1.15 1.21-2.62.64-1.46 1.37-3.29 1.3-3.32 1.61-5.58l.04-.33q1.01-.11 2.09-.72.26 2.46 1.68 6.29 1.54 4.13 2.59 5.49m-3.55-4.11-.36-1.13q-.56-1.8-.95-2.82-.4-1.02-.61-1.27-.44.64-1.78 4.23l-.37.98q.43.04.9.06.47.03.99.03h.17q1.24 0 2.01-.08"></path><rect width="10.59" height="12.54" x="-5.29" y="-6.27" fill="none" rx="0" ry="0" transform="translate(380.37 190.2)"></rect><path fill="#3f3f3f" d="M395.265 195.961q.19-1.28.28-2.4.09-1.11.09-2.09 0-1.13-.1-2.2-.09-1.07-.22-2.08l-.05-.28q.51-.06 1.01-.24.51-.17 1.09-.5-.19 1.24-.29 2.25-.1 1.01-.1 1.82l.01.37q.09 1.88.16 2.92.06 1.03.1 1.27l.39.19q.65.23 1.25.23 1.42 0 2.41-1.19.4-.56.67-1.07.28-.5.45-1.01.17-.5.24-1.02.07-.52.07-1.11 0-.65-.1-1.19-.09-.53-.29-.99-.2-.45-.5-.85-.31-.39-.73-.76-.51-.45-1.25-.73-.73-.28-1.67-.28-.43 0-.92.1-.48.11-.98.3-.5.2-.99.47-.49.27-.93.61l.56-2.17 1.34-.53q.62-.18 1.15-.29.54-.1.98-.1.35 0 .78.06.42.06.9.23.49.16 1.02.46.53.3 1.11.78.38.31.72.79.35.48.61 1.11.26.62.41 1.37.16.75.16 1.61 0 .91-.19 1.69-.19.77-.49 1.41-.29.64-.68 1.13-.39.49-.78.81-.67.54-1.36.82-.7.27-1.45.28l-1.79-.76q-.43.05-.75.13-.32.09-.57.2-.24.11-.43.22t-.35.21"></path><rect width="9.74" height="12.55" x="-4.87" y="-6.28" fill="none" rx="0" ry="0" transform="translate(399.74 190.19)"></rect><path fill="#3f3f3f" d="M417.395 195.201q-.34.04-.66.12-.32.08-.59.19-.27.11-.49.22-.22.12-.36.23-.13-.51-.43-1.51-.3-1.01-.77-2.53-.45-.04-.89-.06-.45-.03-.91-.03-.13 0-.24.01h-.19q-1.44 0-2.34.15l-.09.02q-.46 1.31-.7 2.08-.24.77-.24 1.03v.11q-1.17.23-1.7.73.58-1.15 1.22-2.62.63-1.46 1.36-3.29 1.3-3.32 1.62-5.58l.03-.33q1.01-.11 2.09-.72.26 2.46 1.69 6.29 1.53 4.13 2.59 5.49m-3.56-4.11-.35-1.13q-.57-1.8-.96-2.82-.4-1.02-.61-1.27-.44.64-1.78 4.23l-.36.98q.42.04.89.06.47.03.99.03h.17q1.24 0 2.01-.08"></path><rect width="10.6" height="12.54" x="-5.3" y="-6.27" fill="none" rx="0" ry="0" transform="translate(412.6 190.2)"></rect><path fill="#3f3f3f" d="M419.125 184.161q.35-.03.68-.12.32-.09.6-.2.28-.11.49-.22.2-.11.32-.2.3.92.66 1.85.36.93.8 1.85.43.92.95 1.82t1.14 1.76q.65-.35 1.62-2.34.81-1.66 1.22-2.69.42-1.03.42-1.54 1.22-.25 1.69-.71-.96 1.46-2.79 5.05-1.41 2.78-1.69 3.61.04.97.1 1.67.06.7.16 1.15l.06.3q-.35.04-.67.12-.32.09-.59.2-.26.11-.48.22-.22.12-.35.22.12-.81.2-1.67.07-.87.12-1.81-.56-1.26-1.13-2.37-.57-1.12-1.16-2.12-1.7-3.18-2.37-3.83"></path><rect width="10.59" height="12.54" x="-5.29" y="-6.27" fill="none" rx="0" ry="0" transform="translate(424.92 190.2)"></rect><g transform="translate(283.6 52.34)scale(4.5321)"><linearGradient id="a" x1="0" x2="1" y1="0" y2="0" gradientUnits="objectBoundingBox"><stop offset="0%" stop-color="#cbcbcb"></stop><stop offset="100%" stop-color="#636363"></stop></linearGradient><path fill="url(#a)" d="m-192.7 395.6.8-1.8h-15.6l-12.2-4-3.1-2.5h2l-1.8-1.5H-238v-1h2.1l1.1-1.4h-2.3l-1.6-1.4.5-.6h-2.8v4.4h-5l1.5 1.6h3.5v2.8h-4l-1.3 2.6h4.9l-1.5 3.1h-5l-2.3 4.9h-2.1v1.1l2.1 1.7h46.3c1.8 0 3.8-.6 5.1-1.6 1.3-.9 7.2-5.3 7.2-5.3l.5-1zm-.9 0h-1.9l.5-1h1.9zm-4-1h1.8l-.5 1h-1.8zm-1.4 1h-2.1l.5-1h2.1zm-24.9-2.8v1.8h-3v-1.8zm-4.2 1.8h-3.2v-1.8h3.2zm9.8 0v-1.8h2.9v1.8zm-1.3 0h-2.9v-1.8h2.9zm-13-1.8v1.8h-3.9l.8-1.8zm23.8 1.8h-5.4v-1.8zm-14-5.8h-4v-1.4h2.4zm-5.3-1.4v1.4h-3.2v-1.4h1.3zm-4.6 0h.1v1.4h-3.1v-1.4zm27.7 7.2h3.5l-.5 1h-.1z" transform="translate(221.7 -392.5)"></path></g></svg></svg>